<?xml version="1.0" standalone="no"?>
<!DOCTYPE svg PUBLIC "-//W3C//DTD SVG 20010904//EN"
 "http://www.w3.org/TR/2001/REC-SVG-20010904/DTD/svg10.dtd">
<svg version="1.0" xmlns="http://www.w3.org/2000/svg"
 width="512.000000pt" height="512.000000pt" viewBox="0 0 512.000000 512.000000"
 preserveAspectRatio="xMidYMid meet">
<metadata>
Created by potrace 1.14, written by Peter Selinger 2001-2017
</metadata>
<g transform="translate(0.000000,512.000000) scale(0.100000,-0.100000)"
fill="#000000" stroke="none">
<path d="M415 5110 c-183 -38 -330 -170 -391 -350 -18 -53 -19 -134 -19 -2200
0 -2066 1 -2147 19 -2200 52 -154 168 -274 322 -332 l59 -23 2155 0 2155 0 59
23 c154 58 270 178 322 332 18 53 19 134 19 2200 0 2066 -1 2147 -19 2200 -52
154 -168 274 -322 332 l-59 23 -2130 1 c-1172 1 -2148 -2 -2170 -6z m2795
-760 c251 -31 441 -76 605 -144 83 -35 257 -127 297 -158 17 -12 16 -28 -13
-278 -32 -290 -45 -342 -89 -365 -68 -35 -141 -7 -186 72 -15 26 -44 78 -66
115 -143 248 -424 398 -779 415 -349 17 -682 -107 -911 -340 -181 -184 -323
-445 -386 -710 -25 -104 -27 -128 -26 -332 0 -190 3 -234 23 -325 99 -462 380
-869 719 -1039 201 -101 490 -148 749 -122 333 34 480 133 641 431 65 119 99
150 166 150 49 0 103 -30 116 -66 6 -14 10 -43 10 -64 0 -48 -213 -650 -236
-667 -54 -40 -336 -120 -524 -148 -170 -26 -540 -32 -695 -11 -318 42 -598
146 -860 321 -276 183 -463 385 -590 635 -236 467 -243 1142 -15 1627 191 408
603 760 1072 917 128 43 316 82 454 95 116 11 403 7 524 -9z"/>
</g>
</svg>
